<mxfile host="65bd71144e">
    <diagram id="xSdYxxqngGiQ2AKgE6oC" name="Page-1">
        <mxGraphModel dx="1839" dy="746" grid="1" gridSize="10" guides="1" tooltips="1" connect="1" arrows="1" fold="1" page="1" pageScale="1" pageWidth="850" pageHeight="1100" background="#CCE5FF" math="0" shadow="0">
            <root>
                <mxCell id="0"/>
                <mxCell id="1" parent="0"/>
                <mxCell id="91" value="" style="rounded=0;whiteSpace=wrap;html=1;fillColor=none;" vertex="1" parent="1">
                    <mxGeometry x="-680" width="680" height="520" as="geometry"/>
                </mxCell>
                <mxCell id="80" value="" style="rounded=0;whiteSpace=wrap;html=1;fillColor=none;dashed=1;strokeColor=#FF8000;" parent="1" vertex="1">
                    <mxGeometry x="-570" y="30" width="540" height="350" as="geometry"/>
                </mxCell>
                <mxCell id="54" value="" style="edgeStyle=none;html=1;strokeWidth=4;strokeColor=light-dark(#a04b4b, #ededed);exitX=0.529;exitY=0.008;exitDx=0;exitDy=0;exitPerimeter=0;" parent="1" source="87" target="92" edge="1">
                    <mxGeometry relative="1" as="geometry">
                        <mxPoint x="-193" y="680" as="sourcePoint"/>
                        <mxPoint x="-113.5" y="520" as="targetPoint"/>
                    </mxGeometry>
                </mxCell>
                <mxCell id="94" value="Loading Project&amp;nbsp;&lt;div&gt;Pictures to S3;&amp;nbsp;&lt;/div&gt;&lt;div&gt;giving appropriate&amp;nbsp;&lt;/div&gt;&lt;div&gt;access permissings&lt;/div&gt;&lt;div&gt;&amp;nbsp;so those pictures&lt;/div&gt;&lt;div&gt;&amp;nbsp;can be show&lt;/div&gt;&lt;div&gt;&amp;nbsp;on Web UI&lt;/div&gt;" style="edgeLabel;html=1;align=center;verticalAlign=middle;resizable=0;points=[];labelBackgroundColor=none;" vertex="1" connectable="0" parent="54">
                    <mxGeometry x="0.0344" y="-2" relative="1" as="geometry">
                        <mxPoint as="offset"/>
                    </mxGeometry>
                </mxCell>
                <mxCell id="56" style="edgeStyle=none;html=1;exitX=0.566;exitY=0.02;exitDx=0;exitDy=0;exitPerimeter=0;strokeWidth=4;strokeColor=light-dark(#a04b4b, #ededed);entryX=0.5;entryY=1;entryDx=0;entryDy=0;entryPerimeter=0;" parent="1" source="87" target="93" edge="1">
                    <mxGeometry relative="1" as="geometry">
                        <mxPoint x="-161" y="630" as="sourcePoint"/>
                        <mxPoint x="-271" y="520" as="targetPoint"/>
                    </mxGeometry>
                </mxCell>
                <mxCell id="97" value="Loading Project data&amp;nbsp;&lt;div&gt;into DynamoDB&lt;/div&gt;&lt;div&gt;so UI can be data driven&lt;/div&gt;" style="edgeLabel;html=1;align=center;verticalAlign=middle;resizable=0;points=[];labelBackgroundColor=none;" vertex="1" connectable="0" parent="56">
                    <mxGeometry x="0.2203" y="1" relative="1" as="geometry">
                        <mxPoint as="offset"/>
                    </mxGeometry>
                </mxCell>
                <mxCell id="50" value="" style="dashed=0;outlineConnect=0;html=1;align=center;labelPosition=center;verticalLabelPosition=bottom;verticalAlign=top;shape=mxgraph.weblogos.github" parent="1" vertex="1">
                    <mxGeometry x="-360" y="402" width="75" height="75" as="geometry"/>
                </mxCell>
                <mxCell id="72" value="" style="edgeStyle=none;html=1;strokeWidth=4;fontStyle=0" parent="1" source="51" target="50" edge="1">
                    <mxGeometry relative="1" as="geometry"/>
                </mxCell>
                <mxCell id="73" value="&lt;b&gt;Code commit&lt;/b&gt;" style="edgeLabel;html=1;align=center;verticalAlign=middle;resizable=0;points=[];labelBackgroundColor=none;" parent="72" vertex="1" connectable="0">
                    <mxGeometry x="-0.1658" y="-3" relative="1" as="geometry">
                        <mxPoint x="1" y="9" as="offset"/>
                    </mxGeometry>
                </mxCell>
                <mxCell id="51" value="&lt;b&gt;Developer&lt;/b&gt;" style="html=1;verticalLabelPosition=bottom;align=center;labelBackgroundColor=none;verticalAlign=top;strokeWidth=2;strokeColor=#0080F0;shadow=0;dashed=0;shape=mxgraph.ios7.icons.user;" parent="1" vertex="1">
                    <mxGeometry x="-530" y="403" width="70" height="70" as="geometry"/>
                </mxCell>
                <mxCell id="79" value="" style="outlineConnect=0;dashed=0;verticalLabelPosition=bottom;verticalAlign=top;align=center;html=1;shape=mxgraph.aws3.cloud_2;fillColor=#F58534;gradientColor=none;" parent="1" vertex="1">
                    <mxGeometry x="-560" y="40" width="60" height="60" as="geometry"/>
                </mxCell>
                <mxCell id="87" value="" style="image;aspect=fixed;html=1;points=[];align=center;fontSize=12;image=img/lib/azure2/other/Azure_Deployment_Environments.svg;" parent="1" vertex="1">
                    <mxGeometry x="-221.5" y="411.72" width="68" height="65.28" as="geometry"/>
                </mxCell>
                <mxCell id="88" style="edgeStyle=none;html=1;entryX=0.022;entryY=0.426;entryDx=0;entryDy=0;entryPerimeter=0;strokeWidth=4;strokeColor=light-dark(#a04b4b, #ededed);" parent="1" source="50" target="87" edge="1">
                    <mxGeometry relative="1" as="geometry"/>
                </mxCell>
                <mxCell id="89" value="&lt;b&gt;CI/CD&lt;/b&gt;&lt;div&gt;&lt;b&gt;Workflow&lt;/b&gt;&lt;/div&gt;&lt;div&gt;&lt;b&gt;to AWS&lt;/b&gt;&lt;/div&gt;" style="edgeLabel;html=1;align=center;verticalAlign=middle;resizable=0;points=[];labelBackgroundColor=none;" parent="88" vertex="1" connectable="0">
                    <mxGeometry x="-0.025" y="-2" relative="1" as="geometry">
                        <mxPoint y="25" as="offset"/>
                    </mxGeometry>
                </mxCell>
                <mxCell id="92" value="AWS S3" style="outlineConnect=0;dashed=0;verticalLabelPosition=bottom;verticalAlign=top;align=center;html=1;shape=mxgraph.aws3.s3;fillColor=#E05243;gradientColor=none;" vertex="1" parent="1">
                    <mxGeometry x="-160" y="80" width="70" height="70" as="geometry"/>
                </mxCell>
                <mxCell id="93" value="DynamoDB" style="sketch=0;points=[[0,0,0],[0.25,0,0],[0.5,0,0],[0.75,0,0],[1,0,0],[0,1,0],[0.25,1,0],[0.5,1,0],[0.75,1,0],[1,1,0],[0,0.25,0],[0,0.5,0],[0,0.75,0],[1,0.25,0],[1,0.5,0],[1,0.75,0]];outlineConnect=0;fontColor=#232F3E;fillColor=#C925D1;strokeColor=#ffffff;dashed=0;verticalLabelPosition=bottom;verticalAlign=top;align=center;html=1;fontSize=12;fontStyle=0;aspect=fixed;shape=mxgraph.aws4.resourceIcon;resIcon=mxgraph.aws4.dynamodb;" vertex="1" parent="1">
                    <mxGeometry x="-440" y="80" width="70" height="70" as="geometry"/>
                </mxCell>
            </root>
        </mxGraphModel>
    </diagram>
</mxfile>